HIERARCHY
ROOT pelvis
{
  OFFSET 0 100 0
  CHANNELS 6 Xposition Yposition Zposition Zrotation Xrotation Yrotation
  JOINT pelvis_right_femur
  {
    OFFSET -10.78128 -3.44521 -0.5502486
    CHANNELS 3 Zrotation Xrotation Yrotation
    JOINT right_femur_tibia
    {
      OFFSET -0.8047443 -44.0398 -0.1307829
      CHANNELS 3 Zrotation Xrotation Yrotation
      JOINT right_tibia_foot
      {
        OFFSET 3.006224 -47.83518 -5
        CHANNELS 3 Zrotation Xrotation Yrotation
        End Site
        {
          OFFSET 0 -5 15
        }
      }
    }
  }
  JOINT pelvis_left_femur
  {
    OFFSET 10.78128 -3.44521 -0.5502486
    CHANNELS 3 Zrotation Xrotation Yrotation
    JOINT left_femur_tibia
    {
      OFFSET 0.8047443 -44.0398 -0.1307829
      CHANNELS 3 Zrotation Xrotation Yrotation
      JOINT left_tibia_foot
      {
        OFFSET -4.370144 -48.10324 -4.275266
        CHANNELS 3 Zrotation Xrotation Yrotation
        End Site
        {
          OFFSET 0 -5 15
        }
      }
    }
  }
  JOINT pelvis_spine1
  {
    OFFSET 0 6.468898 -3.129235
    CHANNELS 3 Zrotation Xrotation Yrotation
    JOINT spine1
    {
      OFFSET 0 23.15396 4.99043
      CHANNELS 3 Zrotation Xrotation Yrotation
      JOINT spine2
      {
        OFFSET 0 20.79997 -5.064912
        CHANNELS 3 Zrotation Xrotation Yrotation
        JOINT neck
        {
          OFFSET 0 14.38658 9.616178
          CHANNELS 3 Zrotation Xrotation Yrotation
          End Site
          {
            OFFSET 0 20 0
          }
        }
      }
      JOINT right_manubrium
      {
        OFFSET -5.722621 16.35077 3.967754
        CHANNELS 3 Zrotation Xrotation Yrotation
        JOINT right_clavicle
        {
          OFFSET -13.16364 1.694482 -4.693211
          CHANNELS 3 Zrotation Xrotation Yrotation
          JOINT right_humerus
          {
            OFFSET -28.5034 -0.3100689 -2.792744
            CHANNELS 3 Zrotation Xrotation Yrotation
            JOINT right_radius
            {
              OFFSET -25.15693 0.02248979 -1.271978
              CHANNELS 3 Zrotation Xrotation Yrotation
              End Site
              {
                OFFSET -15 0 0
              }
            }
          }
        }
      }
      JOINT left_manubrium
      {
        OFFSET 5.722621 16.35077 3.967754
        CHANNELS 3 Zrotation Xrotation Yrotation
        JOINT left_clavicle
        {
          OFFSET 13.16364 1.694482 -4.693211
          CHANNELS 3 Zrotation Xrotation Yrotation
          JOINT left_humerus
          {
            OFFSET 29.39168 -1.063119 -2.237045
            CHANNELS 3 Zrotation Xrotation Yrotation
            JOINT left_radius
            {
              OFFSET 24.59957 -0.9528479 0.9047498
              CHANNELS 3 Zrotation Xrotation Yrotation
              End Site
              {
                OFFSET 15 -0 -0
              }
            }
          }
        }
      }
    }
  }
}
MOTION
Frames: 23
Frame Time: 0.0416666666667
0 103.5113 0 0.780616 -1.131585 0.06834498 3.268417 -16.81554 8.509206 -0 38.51099 -0 -5.962667 -13.15904 -2.454822 -7.212614 9.12695 -21.93071 -0 4.409852 -0 12.02907 -14.82994 27.10113 -3.299141 -3.500517 4.78109 2.325541 10.47505 -7.329165 1.436047 22.12587 6.756761 2.741594 -25.13243 9.826542 5.297463 -20.81025 11.83987 86.25714 33.71924 -17.83567 -0 0 16.00838 -8.381846 8.404854 5.632192 5.861347 -19.8453 -1.919095 -92.82937 22.56084 21.33704 0 0 -14.79861 13.41639 15.77552 -0.9262646
0.3804686 103.3326 1.963819 0.3989493 -0.7768946 0.1578367 3.856463 -19.03914 8.08686 -0 37.21421 -0 -6.272791 -12.62511 -2.322857 -6.83571 9.78792 -21.57901 -0 4.825398 -0 11.20556 -15.59512 26.29465 -3.092804 -3.097115 4.41624 2.460908 10.19026 -7.39831 1.404997 22.05977 6.887483 2.834979 -25.29684 9.859118 5.236329 -20.37605 11.79573 86.36822 33.68124 -18.13763 -0 0 15.39541 -8.333806 8.314157 5.509277 5.999847 -20.0026 -1.910959 -92.51569 22.91704 20.753 0 0 -15.49466 13.23308 15.87888 -0.7429259
0.7155961 103.0284 4.986844 -0.5117019 -0.3741349 0.3526932 5.26657 -24.82228 5.532235 -0 30.5895 -0 -7.13085 -6.848326 -1.06807 -5.932803 10.79371 -18.22473 -0 8.047806 -0 10.53742 -16.55452 23.63477 -2.150118 -2.523012 3.952931 2.577704 11.0542 -7.713374 1.243037 21.40062 7.157508 3.028112 -25.86732 9.697581 3.94168 -20.22576 12.17585 88.34603 30.99577 -19.77712 -0 0 12.86163 -10.91986 8.918975 6.379582 6.707969 -22.26512 -2.707866 -90.11195 19.14274 18.21703 0 0 -19.53101 16.62835 14.89707 -4.712217
1.028333 102.6005 8.638995 -0.7073833 -0.3151828 0.5990609 5.589111 -27.00932 3.846935 -0 25.89511 -0 -7.495489 -3.495601 -0.3760824 -5.731969 11.42005 -16.2411 -0 10.21303 -0 10.11737 -17.06764 22.25421 -1.768923 -2.492878 3.889548 2.559866 11.66885 -7.915837 1.12063 21.08237 7.314247 3.15093 -25.97576 9.518542 3.035539 -20.25401 12.35679 89.7436 29.30675 -21.02144 -0 0 11.30471 -12.70182 9.247809 6.989327 7.095363 -23.75725 -3.259274 -88.77661 17.07722 16.7905 0 0 -22.52797 18.01236 14.20992 -6.430478
1.320923 101.9773 13.16043 -0.6563592 -1.216954 0.8378219 5.352374 -27.67962 0.8132797 -0 19.86412 -0 -8.224594 1.646519 0.6182487 -5.612855 11.94743 -13.11032 -0 13.46751 -0 9.688922 -17.05021 20.514 -1.175644 -2.807736 3.925145 2.231998 13.00882 -8.094795 0.9070813 20.96322 7.426246 3.223104 -25.56806 9.044855 1.207723 -20.71834 12.68245 92.23912 25.57784 -22.69729 -0 0 8.982288 -16.31419 9.658654 8.28256 7.468381 -26.23096 -4.572999 -86.99385 13.64929 14.92791 0 0 -26.85219 20.00001 13.5311 -8.977514
1.58989 101.2845 18.33138 -0.4751646 -2.393282 1.034459 5.047692 -27.00836 -1.613538 -0 15.50105 -0 -8.873667 5.231844 1.228098 -5.555979 12.32275 -10.6665 -0 16.46523 -0 9.314388 -16.62111 19.2975 -0.659444 -3.249555 4.002424 1.849598 14.17928 -8.206683 0.7505995 21.05526 7.398005 3.185582 -24.888 8.564552 -0.4491262 -21.21993 12.91137 94.36082 22.13913 -23.92706 -0 0 7.213377 -19.39448 9.923924 9.312473 7.576328 -28.21461 -5.832824 -85.75867 11.09018 13.61394 0 0 -30.22466 21.21575 13.28246 -10.63676
1.813108 100.5906 24.04963 -0.2595381 -4.201555 1.120848 4.830106 -24.99884 -3.77441 -0 12.38802 -0 -9.645667 8.005597 1.511298 -5.376081 12.51671 -8.422034 -0 20.16416 -0 8.792803 -15.60267 18.27092 -0.0290094 -3.764188 4.057166 1.339077 15.39031 -8.216984 0.6887543 21.40637 7.141889 2.995165 -23.80672 8.003107 -2.299967 -21.82742 13.07842 96.51448 18.10943 -24.76254 -0 0 5.751514 -22.50728 10.12566 10.23888 7.390085 -29.95157 -7.324164 -84.85838 8.941874 12.64629 0 0 -32.7199 22.00547 13.58453 -11.83334
1.968911 100.0438 30.13077 -0.1260458 -6.204033 1.0447 4.902008 -22.25858 -5.097226 -0 10.9618 -0 -10.34622 9.429468 1.34164 -5.04108 12.41077 -6.82097 -0 24.32846 -0 8.144744 -14.19941 17.59989 0.6016403 -4.184635 4.087617 0.8439294 16.36913 -8.126326 0.7815402 21.88713 6.666925 2.689034 -22.60812 7.500211 -3.943017 -22.37615 13.13573 98.26803 14.40257 -25.0376 -0 0 4.96513 -24.89825 10.2977 10.81494 6.951747 -30.99937 -8.687715 -84.47145 7.701297 12.27082 0 0 -33.6417 22.15218 14.35493 -12.25548
2.03111 99.7325 36.40644 -0.1040495 -8.374002 0.7513516 5.221831 -18.81277 -5.684957 -0 10.89057 -0 -10.9757 9.769054 0.7570772 -4.524253 11.81649 -5.761833 -0 29.13031 -0 7.34538 -12.44228 17.25263 1.211942 -4.456942 4.115952 0.3766981 17.13947 -7.915648 1.047647 22.46122 5.965267 2.285219 -21.34522 7.058774 -5.388031 -22.86993 13.10124 99.65817 11.01221 -24.75603 -0 0 4.846376 -26.64603 10.49205 11.10822 6.325238 -31.36239 -9.891496 -84.57917 7.254203 12.49852 0 0 -32.89983 21.71797 15.51598 -11.98568
1.983482 99.7094 42.72235 -0.1948127 -10.44889 0.2211665 5.674646 -14.94509 -5.661976 -0 11.65773 -0 -11.47208 9.283458 -0.1000338 -3.885786 10.59232 -5.190779 -0 34.07484 -0 6.483881 -10.55454 17.23295 1.711035 -4.546901 4.182537 -0.01461933 17.67789 -7.602195 1.445756 23.0243 5.126322 1.84887 -20.18076 6.702237 -6.516574 -23.30257 13.00888 100.5968 8.263909 -23.99594 -0 0 5.361965 -27.7365 10.73244 11.20561 5.648482 -31.09365 -10.79938 -85.14086 7.449618 13.30836 0 0 -30.71514 20.80106 16.8209 -11.13861
1.823564 99.95044 48.95791 -0.3711438 -12.30352 -0.5308575 6.136907 -10.73589 -5.262983 -0 12.74596 -0 -11.81938 8.275381 -1.064129 -3.176095 8.634064 -4.952039 -0 38.56603 -0 5.630463 -8.696352 17.49871 2.053691 -4.465005 4.314839 -0.3287122 18.01871 -7.193456 1.915698 23.51806 4.229269 1.421929 -19.1788 6.412057 -7.322324 -23.72693 12.89757 101.0835 6.208249 -22.82527 -0 0 6.427702 -28.34009 11.02278 11.25142 5.022958 -30.3409 -11.3865 -86.0922 8.035578 14.64105 0 0 -27.44855 19.53952 18.08705 -9.890976
1.566594 100.3764 55.0391 -0.603616 -13.7979 -1.455634 6.522557 -6.373865 -4.700445 -0 13.75383 -0 -11.99537 6.990812 -1.961532 -2.447451 5.989073 -4.9012 -0 41.80743 -0 4.855969 -7.047965 17.96896 2.223581 -4.24675 4.515952 -0.5677068 18.18541 -6.713714 2.37736 23.88484 3.372619 1.04028 -18.39742 6.171623 -7.806858 -24.19869 12.7978 101.1187 4.871017 -21.33213 -0 0 7.944965 -28.61376 11.3502 11.37484 4.527397 -29.27612 -11.65188 -87.33172 8.769679 16.39714 0 0 -23.58507 18.08806 19.15042 -8.428591
1.243339 100.8712 60.94041 -0.8734386 -14.86192 -2.488781 6.801907 -2.021451 -4.118654 -0 14.53098 -0 -11.99013 5.56434 -2.673778 -1.721929 2.816754 -4.931787 -0 43.1465 -0 4.188631 -5.715958 18.54315 2.249358 -3.937832 4.763219 -0.7423421 18.19264 -6.187176 2.767379 24.09513 2.62623 0.7139932 -17.85378 5.968373 -8.004714 -24.76623 12.71927 100.7302 4.176546 -19.5766 -0 0 9.839289 -28.68521 11.69514 11.66298 4.189586 -28.03159 -11.62897 -88.76089 9.482765 18.47994 0 0 -19.51628 16.56231 19.93185 -6.884606
0.8939315 101.3186 66.67956 -1.17422 -15.46431 -3.56713 6.978268 2.129882 -3.586042 -0 15.13357 -0 -11.8089 4.045117 -3.140167 -1.014889 -0.601216 -4.993202 -0 42.24951 -0 3.622918 -4.743903 19.1139 2.184684 -3.587472 5.017199 -0.8583978 18.03992 -5.646596 3.04677 24.14103 2.035523 0.4377956 -17.54722 5.805056 -7.959911 -25.43877 12.64971 99.96864 4.018715 -17.62806 -0 0 12.02527 -28.61625 12.03098 12.14066 3.998489 -26.69598 -11.35749 -90.2759 10.09487 20.77172 0 0 -15.54762 15.03603 20.40279 -5.332614
0.5595605 101.6297 72.30419 -1.502005 -15.62629 -4.639272 7.057666 5.924161 -3.109323 -0 15.75352 -0 -11.47738 2.445731 -3.357028 -0.3532432 -3.9347 -5.085486 -0 39.23372 -0 3.128863 -4.109377 19.59536 2.083349 -3.239691 5.238744 -0.9181505 17.72268 -5.124118 3.210138 24.0416 1.614348 0.1976553 -17.45742 5.697107 -7.724787 -26.18017 12.55959 98.91073 4.275967 -15.56597 -0 0 14.39064 -28.41594 12.32548 12.77433 3.91395 -25.31614 -10.87686 -91.7827 10.60559 23.13876 0 0 -11.86446 13.54587 20.57023 -3.796965
0.2738806 101.7632 77.87695 -1.842608 -15.41592 -5.667729 7.026912 9.251002 -2.660538 -0 16.61124 -0 -11.04143 0.8188007 -3.358537 0.2069906 -6.864147 -5.24156 -0 34.65913 -0 2.67286 -3.754017 19.9387 1.976449 -2.929735 5.402706 -0.9243617 17.24717 -4.646194 3.280798 23.83955 1.353281 -0.0171993 -17.55093 5.666454 -7.358678 -26.91272 12.41309 97.66156 4.832265 -13.49466 -0 0 16.77366 -28.06775 12.5412 13.48579 3.884516 -23.92422 -10.22709 -93.19543 11.06173 25.42527 0 0 -8.572139 12.1203 20.45604 -2.289964
0.05728029 101.7284 83.46175 -2.165794 -14.94327 -6.626981 6.85278 12.06375 -2.2034 -0 17.87992 -0 -10.56015 -0.6915728 -3.196656 0.5874921 -9.151291 -5.505171 -0 29.36894 -0 2.234265 -3.61344 20.14181 1.863819 -2.680145 5.50431 -0.8873914 16.64334 -4.224947 3.300068 23.59309 1.228471 -0.206851 -17.78672 5.731819 -6.92774 -27.54201 12.18226 96.34989 5.577562 -11.53188 -0 0 18.97981 -27.56492 12.63878 14.17947 3.865521 -22.55602 -9.455305 -94.44682 11.51879 27.47608 0 0 -5.71271 10.8012 20.09479 -0.8426222
-0.08472017 101.5755 89.11306 -2.430638 -14.3424 -7.500628 6.499462 14.36673 -1.714956 -0 19.64475 -0 -10.09676 -1.852129 -2.924584 0.7120987 -10.67765 -5.908673 -0 24.25416 -0 1.813794 -3.640055 20.24331 1.72201 -2.499374 5.55527 -0.8278042 15.96778 -3.856631 3.311629 23.3632 1.21291 -0.3583679 -18.1234 5.900466 -6.498596 -27.98565 11.86004 95.11456 6.407517 -9.793074 -0 0 20.81653 -26.93411 12.58227 14.76978 3.832789 -21.26091 -8.620673 -95.49513 12.01006 29.16319 0 0 -3.286876 9.650514 19.53898 0.4832108
-0.1590551 101.3777 94.86755 -2.598589 -13.74486 -8.27821 5.95109 16.19075 -1.19785 -0 21.90163 -0 -9.70795 -2.40416 -2.586147 0.5359724 -11.44759 -6.458215 -0 20.01678 -0 1.4325 -3.809611 20.30535 1.522002 -2.382904 5.573415 -0.7726785 15.29391 -3.526848 3.346856 23.20071 1.285153 -0.4500007 -18.52446 6.164101 -6.125853 -28.19606 11.46678 94.08064 7.228183 -8.371439 -0 0 22.13529 -26.23866 12.34658 15.20198 3.787179 -20.09798 -7.792215 -96.32663 12.5327 30.40839 0 0 -1.271158 8.739027 18.86233 1.605085
-0.1806176 101.2118 100.7376 -2.646371 -13.25242 -8.951506 5.226343 17.56207 -0.6810566 -0 24.57625 -0 -9.43559 -2.157351 -2.211287 0.06266952 -11.55632 -7.131292 -0 17.0269 -0 1.124662 -4.114204 20.39114 1.246125 -2.317073 5.571731 -0.7473704 14.69385 -3.220969 3.415886 23.13806 1.433534 -0.4592508 -18.95963 6.49998 -5.839562 -28.16725 11.04688 93.33364 7.969079 -7.32543 -0 0 22.85764 -25.56162 11.92535 15.45812 3.74892 -19.12577 -7.039656 -96.94768 13.05488 31.18663 -0 0 0.3593418 8.127759 18.15336 2.442109
-0.1675249 101.1425 106.7075 -2.572693 -12.91946 -9.511708 4.37892 18.48011 -0.2109795 -0 27.55037 -0 -9.302303 -1.06628 -1.816513 -0.6570672 -11.14168 -7.886027 -0 15.30273 -0 0.9284545 -4.54986 20.54617 0.8968677 -2.283952 5.55184 -0.7674453 14.22037 -2.933639 3.506931 23.18722 1.655235 -0.3712533 -19.40334 6.876143 -5.639636 -27.92703 10.65672 92.9026 8.596488 -6.675116 -0 0 22.97928 -24.97936 11.33573 15.54968 3.745643 -18.39131 -6.421197 -97.3718 13.53603 31.51353 -0 0 1.611444 7.852777 17.50055 2.935935
-0.1373321 101.2114 112.7337 -2.39738 -12.74962 -9.949467 3.486491 18.91018 0.1618153 -0 30.6825 -0 -9.311442 0.7431963 -1.409594 -1.539477 -10.34037 -8.674581 -0 14.59308 -0 0.8766972 -5.106642 20.78831 0.4964008 -2.265392 5.503577 -0.8342297 13.89625 -2.67325 3.59268 23.34242 1.95183 -0.184196 -19.83274 7.258179 -5.499805 -27.52171 10.34936 92.75892 9.118344 -6.407367 -0 0 22.55639 -24.53906 10.61761 15.5032 3.800155 -17.92288 -5.973677 -97.6084 13.94762 31.42653 -0 0 2.465525 7.918857 16.97657 3.062748
-0.1046652 101.4317 118.7505 -2.155384 -12.70511 -10.25807 2.63412 18.79145 0.395423 -0 33.82066 -0 -9.449805 3.002135 -0.9965925 -2.48605 -9.261246 -9.453744 -0 14.50741 -0 0.9888155 -5.765203 21.10712 0.08002252 -2.245304 5.409328 -0.9349093 13.71324 -2.460287 3.64041 23.58509 2.323676 0.08952432 -20.22728 7.615258 -5.378446 -27.00102 10.162 92.83048 9.576729 -6.485964 -0 0 21.68489 -24.24844 9.827277 15.34717 3.922689 -17.72703 -5.708381 -97.65876 14.28458 30.96993 -0 0 2.882814 8.301108 16.62801 2.835238
